<?xml version="1.0" encoding="UTF-8"?>
<svg id="_레이어_2" data-name="레이어_2" xmlns="http://www.w3.org/2000/svg" viewBox="0 0 46.77 49.01">
  <defs>
    <style>
      .cls-1 {
        fill: #ff2a00;
      }
    </style>
  </defs>
  <g id="Layer_1">
    <g>
      <g>
        <g>
          <polygon class="cls-1" points="23.39 16.14 11.69 9.28 13.11 6.86 23.39 12.88 33.67 6.86 35.09 9.28 23.39 16.14"/>
          <rect class="cls-1" x="21.98" y="14.51" width="2.81" height="13.22"/>
        </g>
        <path class="cls-1" d="M23.39,29.35l-12.4-7.26V7.26L23.39,0l12.39,7.26v14.82l-12.39,7.26ZM13.8,20.48l9.59,5.62,9.59-5.62v-11.61l-9.59-5.62-9.59,5.62v11.61Z"/>
      </g>
      <g>
        <g>
          <polygon class="cls-1" points="12.4 35.8 .69 28.94 2.11 26.52 12.4 32.54 22.68 26.52 24.1 28.94 12.4 35.8"/>
          <rect class="cls-1" x="10.99" y="34.17" width="2.81" height="13.22"/>
        </g>
        <path class="cls-1" d="M12.4,49.01L0,41.75v-14.82l12.4-7.26,12.39,7.26v14.82l-12.39,7.26ZM2.81,40.14l9.59,5.62,9.59-5.62v-11.61l-9.59-5.62-9.59,5.62v11.61Z"/>
      </g>
      <g>
        <g>
          <polygon class="cls-1" points="34.38 35.8 22.68 28.94 24.1 26.52 34.38 32.54 44.66 26.52 46.08 28.94 34.38 35.8"/>
          <rect class="cls-1" x="32.98" y="34.17" width="2.81" height="13.22"/>
        </g>
        <path class="cls-1" d="M34.38,49.01l-12.4-7.26v-14.82l12.4-7.26,12.39,7.26v14.82l-12.39,7.26ZM24.79,40.14l9.59,5.62,9.59-5.62v-11.61l-9.59-5.62-9.59,5.62v11.61Z"/>
      </g>
      <g>
        <polygon class="cls-1" points="23.39 27.73 23.39 14.51 12.4 8.07 12.4 21.28 23.39 27.73 23.39 27.73"/>
        <polygon class="cls-1" points="1.4 27.73 1.4 40.94 12.4 47.39 12.4 47.39 12.4 34.17 1.4 27.73"/>
        <polygon class="cls-1" points="23.39 27.73 23.39 40.94 34.38 47.39 34.38 47.39 34.38 34.17 23.39 27.73"/>
      </g>
    </g>
  </g>
</svg>